<svg width="24" height="24" viewBox="0 0 24 24" fill="none" xmlns="http://www.w3.org/2000/svg">
<path d="M3.84016 11.9998C3.84016 7.48784 7.48816 3.83984 12.0002 3.83984C16.5122 3.83984 20.1602 7.48784 20.1602 11.9998C20.1602 16.5118 16.5122 20.1598 12.0002 20.1598C7.48816 20.1598 3.84016 16.5118 3.84016 11.9998ZM19.2002 11.9998C19.2002 8.01584 15.9842 4.79984 12.0002 4.79984C8.01616 4.79984 4.80016 8.01584 4.80016 11.9998C4.80016 15.9838 8.01616 19.1998 12.0002 19.1998C15.9842 19.1998 19.2002 15.9838 19.2002 11.9998Z" fill="#B2572F"/>
<path d="M11.1837 15.9837L15.1677 11.9997L11.1837 8.01575L11.8557 7.34375L16.5117 11.9997L11.8557 16.6558L11.1837 15.9837Z" fill="#B2572F"/>
<path d="M15.8398 11.5195V12.4795H7.67984V11.5195H15.8398Z" fill="#B2572F"/>
</svg>
